<svg xmlns="http://www.w3.org/2000/svg" width="100" height="36" viewBox="0 0 100 36">
    <defs>
        <clipPath id="clip-path">
            <path id="Rectangle_1006" fill="#fff" stroke="#707070" d="M0 0H100V36H0z" transform="translate(138 51)"/>
        </clipPath>
        <style>
            .cls-3{fill:#0098ff}.cls-4{fill:#ff6482}
        </style>
    </defs>
    <g id="nidin_logo_c" clip-path="url(#clip-path)" transform="translate(-138 -51)">
        <g id="Group_3211" transform="translate(160 55)">
            <path id="Rectangle_1005" d="M1.222 0h5.516a1.223 1.223 0 0 1 1.223 1.223 1.222 1.222 0 0 1-1.222 1.222H1.222A1.222 1.222 0 0 1 0 1.223 1.222 1.222 0 0 1 1.222 0z" class="cls-3" transform="translate(32.278 10.416)"/>
            <path id="Path_2706" d="M337.773 151.285h9.353a.435.435 0 0 0 .432-.391l.177-1.743a.435.435 0 0 0-.432-.479h-9.366a.435.435 0 0 0-.433.394l-.164 1.743a.434.434 0 0 0 .433.476z" class="cls-3" transform="translate(-306.849 -142.376)"/>
            <path id="Path_2707" d="M349.79 204.821h7.091a.435.435 0 0 0 .435-.435v-1.57a.435.435 0 0 0-.435-.435h-7.091a.435.435 0 0 0-.435.435v1.568a.435.435 0 0 0 .435.437z" class="cls-3" transform="translate(-317.077 -188.092)"/>
            <path id="Path_2708" d="M140.769 124.862a.659.659 0 0 1 .656.687.692.692 0 0 1-.05.257c-.006.013-.006.019-.012.025a40.746 40.746 0 0 1-2.1 4.33.441.441 0 0 0-.05.213v18.215a.736.736 0 0 1-.732.726l-1.689.075h-.057a.731.731 0 0 1-.656-.455.694.694 0 0 1-.05-.256V135.3c0-.019-.019-.031-.056-.031-.081.106-.163.219-.244.325a.267.267 0 0 1-.031.044c-.094.119-.188.238-.288.357-.031.044-.063.081-.1.125s-.075.081-.106.125c-.119.131-.225.244-.319.344-.006.006-.019.012-.025.025a.754.754 0 0 1-.494.188.732.732 0 0 1-.6-.313l-.081-.156-.432-.87-.623-1.243-.1-.2a.791.791 0 0 1-.056-.294.747.747 0 0 1 .219-.532l.019-.019c.307-.3.72-.72 1.014-1.058a21.671 21.671 0 0 0 4.274-6.762c.011-.032.031-.063.044-.094a.74.74 0 0 1 .613-.351h.037l1.94-.05" class="cls-3" transform="translate(-132.467 -122.108)"/>
            <path id="Path_2709" d="M280.83 215.546a.391.391 0 0 1-.169.319 22.085 22.085 0 0 1-2.553 1.108.187.187 0 0 1-.062.025c-.025 0-.056.006-.088.006a.381.381 0 0 1-.369-.307 20.13 20.13 0 0 0-1.579-4.764.4.4 0 0 1-.031-.15.369.369 0 0 1 .232-.344.355.355 0 0 1 .075-.025l2.209-.8a.226.226 0 0 1 .069-.025.306.306 0 0 1 .075-.006.38.38 0 0 1 .313.169.23.23 0 0 1 .031.069 29.547 29.547 0 0 1 1.842 4.652.3.3 0 0 1 .005.073z" class="cls-3" transform="translate(-254.621 -195.07)"/>
            <path id="Path_2710" d="M432.451 131.564a1.218 1.218 0 0 1-.012.15l-.194 1.815c-.006.106-.006.106-.013.156a.745.745 0 0 1-.657.582h-3.51c-.069 0-.094.025-.094.088v16.231a5.4 5.4 0 0 1-.344 2.184 2.443 2.443 0 0 1-1.208 1.183 6.629 6.629 0 0 1-1.752.432 21.446 21.446 0 0 1-2.609.144h-.025a.648.648 0 0 1-.569-.394l-.9-2.115-.031-.081a.551.551 0 0 1-.038-.206.642.642 0 0 1 .638-.644h.019l2.134.044c.063-.006.125-.006.188-.006h.169c.069-.006.138-.013.2-.013a.789.789 0 0 0 .513-.131.52.52 0 0 0 .138-.419v-16.209c0-.088-.031-.088-.056-.088h-4.374a.74.74 0 0 1-.738-.738 1.221 1.221 0 0 1 .012-.15l.125-1.52v-.013a1.326 1.326 0 0 1 .012-.156.74.74 0 0 1 .688-.576.079.079 0 0 1 .038-.006h.019l3.942-.094 7.534-.181h.025a.733.733 0 0 1 .73.731z" class="cls-3" transform="translate(-376.632 -127.19)"/>
            <path id="Path_2711" d="M197.262 218.189a2.425 2.425 0 1 1-1.109-3.245 2.425 2.425 0 0 1 1.109 3.245z" class="cls-4" transform="translate(-183.702 -198.573)"/>
            <path id="Path_2712" d="M364.408 109.852a2.425 2.425 0 1 1-1.109-3.245 2.425 2.425 0 0 1 1.109 3.245z" class="cls-4" transform="translate(-325.973 -106.359)"/>
            <path id="Path_2713" d="M187.1 141.1a.029.029 0 1 0 .029-.029.029.029 0 0 0-.029.029z" class="cls-3" transform="translate(-178.967 -135.907)"/>
            <g id="Group_3210" transform="translate(31.285 18.246)">
                <path id="Path_2714" d="M362.034 270.287a.088.088 0 0 0 .034.038.133.133 0 0 1-.034-.038z" class="cls-3" transform="translate(-359.154 -264.136)"/>
                <path id="Path_2715" d="M361.893 269.843c0 .008.007.011.008.018a.138.138 0 0 1-.008-.041z" class="cls-3" transform="translate(-359.034 -263.739)"/>
                <path id="Path_2716" d="M383.2 269.843v-.023a.173.173 0 0 1-.014.058c.009-.012.014-.022.014-.035z" class="cls-3" transform="translate(-377.161 -263.739)"/>
                <path id="Path_2717" d="M361.96 270.124a.091.091 0 0 1-.013-.029.137.137 0 0 0 .013.029z" class="cls-3" transform="translate(-359.08 -263.973)"/>
                <path id="Path_2718" d="M366.644 277.73H362.5a.163.163 0 0 0-.056.015h4.2a1.815 1.815 0 0 0 1.813-1.817v-.015a1.815 1.815 0 0 1-1.813 1.817z" class="cls-3" transform="translate(-359.506 -268.925)"/>
                <path id="Path_2719" d="M365.284 270.284h-2.94a.163.163 0 0 1-.084-.023.136.136 0 0 0 .084.031h2.94c.053 0 .078-.032.09-.081a.1.1 0 0 1-.09.073z" class="cls-3" transform="translate(-359.346 -264.073)"/>
                <path id="Path_2720" d="M349.819 228.959H344.5a1.818 1.818 0 0 0-1.817 1.817v5.185a1.818 1.818 0 0 0 1.817 1.817h1.124a.163.163 0 0 1 .056-.015h4.14a1.815 1.815 0 0 0 1.813-1.817v-5.17a1.815 1.815 0 0 0-1.814-1.817zm-1.1 4.052v2.052c0 .014-.009.023-.014.036-.013.049-.037.081-.09.081h-2.94a.136.136 0 0 1-.084-.031.087.087 0 0 1-.034-.038.138.138 0 0 1-.013-.029c0-.007-.008-.01-.008-.018v-3.387c0-.07.05-.108.139-.108h2.94a.1.1 0 0 1 .1.108z" class="cls-3" transform="translate(-342.681 -228.959)"/>
            </g>
            <path id="Path_2721" d="M205.919 125.324c0 .046-.008.089-.012.131l-.316 2.273-.405 2.921c0 .008-.025.252-.174.332a1.9 1.9 0 0 1-2.519-1.783c0-.056.05-.359.073-.532.039-.27.073-.54.1-.806a.1.1 0 0 0-.112-.112h-3.507a.1.1 0 0 0-.108.112v14.16a5.693 5.693 0 0 1-.274 1.96 2.156 2.156 0 0 1-1.007 1.111 5.932 5.932 0 0 1-2.319.571l-.679.062a.8.8 0 0 1-.131.012.644.644 0 0 1-.594-.394l-.845-2a.106.106 0 0 1-.019-.042.545.545 0 0 1-.046-.228.651.651 0 0 1 .648-.644h1.482a.582.582 0 0 0 .382-.1.485.485 0 0 0 .1-.363v-14.1a.1.1 0 0 0-.1-.112h-3a.2.2 0 0 0-.189.112 22.121 22.121 0 0 1-1.644 2.89c-.039.058-.081.116-.12.17-.05.069-.108.139-.158.2a.373.373 0 0 1-.081.093.618.618 0 0 1-.448.189.667.667 0 0 1-.351-.1.479.479 0 0 1-.093-.073l-.016-.015c-.482-.413-1.13-.926-1.57-1.281a.651.651 0 0 1-.282-.533.639.639 0 0 1 .112-.363.524.524 0 0 1 .046-.05c.019-.019.031-.039.054-.062.147-.17.282-.343.37-.463a25.4 25.4 0 0 0 3.411-7.6c.011-.046.023-.089.039-.146a.648.648 0 0 1 .625-.513h.012l2.1-.054h.062a.61.61 0 0 1 .6.606.59.59 0 0 1-.016.139c-.011.043-.166.575-.166.575-.27.957-.614 1.995-1.011 3.1-.015.069.008.112.085.112h11.367a.643.643 0 0 1 .644.638z" class="cls-3" transform="translate(-179.387 -118.094)"/>
        </g>
    </g>
</svg>
